<svg width="112" height="96" viewBox="0 0 112 96" fill="none" xmlns="http://www.w3.org/2000/svg">
<path d="M35.5637 0.0908834C34.9748 0.210199 34.436 0.494948 34.0155 0.909113C33.5771 1.30956 33.2476 1.80732 33.0557 2.35879C33.0557 2.40788 25.7798 14.4609 16.8834 29.1433C7.98707 43.8257 0.607672 56.1173 0.472985 56.4542C0.142476 57.2487 -0.0157726 58.0998 0.00795965 58.9553C-0.041929 59.8137 0.143355 60.6697 0.545283 61.4375C1.05142 62.4003 3.84724 67.0289 4.31226 67.6426C4.8681 68.3758 5.54876 69.0136 6.32548 69.5287C7.09635 69.9613 7.95841 70.2218 8.84799 70.2907C9.73757 70.3596 10.6319 70.2353 11.4648 69.9269C12.8372 69.3214 13.5291 68.5754 15.056 66.0933C23.3541 52.6111 49.4959 10.626 49.8376 10.2401C50.1663 9.89283 50.5291 9.57677 50.9208 9.29635C51.8245 8.8026 52.6172 8.1411 53.2529 7.35024C53.6466 6.79447 53.9121 6.164 54.0314 5.50136C54.1507 4.83871 54.1212 4.15923 53.9448 3.50847C53.682 2.6378 53.1708 1.85536 52.4691 1.25006C51.7675 0.644757 50.9034 0.240856 49.9751 0.0840579C49.1769 -0.0291352 36.2031 -0.0291285 35.5637 0.0908834Z" fill="#0D4685"/>
<path d="M62.0586 0.0905721C61.04 0.259767 60.1023 0.732664 59.3783 1.44236C58.6543 2.15205 58.1804 3.06268 58.0237 4.04554C57.8859 4.98431 58.0444 5.94132 58.4787 6.7924C58.913 7.64348 59.6031 8.34937 60.4594 8.81875C61.3172 9.37499 62.0712 10.0666 62.6896 10.8644C62.9164 11.1822 88.0786 51.7175 96.0562 64.6134C98.1205 67.9492 98.6153 68.6448 99.3582 69.2203C100.073 69.7445 100.908 70.0973 101.793 70.2491C102.678 70.4009 103.587 70.3474 104.447 70.0931C105.777 69.6151 106.926 68.7589 107.738 67.6382C109.264 65.348 110.637 62.9671 111.85 60.5099C112.103 59.2594 112.035 57.9685 111.654 56.7485C111.449 56.1526 107.475 49.511 95.183 29.2181C86.2653 14.5057 78.9795 2.42261 78.9795 2.36397C78.9172 2.16763 78.834 1.97809 78.7314 1.79812C78.3315 1.13997 77.744 0.605659 77.0386 0.25838C76.5537 0.0401765 76.5324 0.0401099 69.5358 0.0196533C65.6781 0.0210171 62.3138 0.0510227 62.0586 0.0905721Z" fill="#0D4685"/>
<path d="M44.263 46.6023C37.8023 57.0174 32.5481 65.5588 32.5906 65.5942C32.6828 65.6829 79.3537 65.6829 79.4472 65.5942C79.4983 65.5451 56.338 28.0564 56.07 27.759C56.0289 27.7195 50.7138 36.1967 44.263 46.6023Z" fill="#0D4685"/>
<path d="M14.1883 76.1472C13.571 76.2787 13.0199 76.6116 12.6288 77.0894C12.1083 77.6644 11.8449 78.4139 11.8958 79.1747C11.9501 80.3629 12.3744 81.5081 13.1136 82.4615C13.5787 83.2156 15.3438 86.1544 17.0351 88.9938C19.7076 93.4711 20.2137 94.2457 20.7808 94.8116C21.1296 95.1588 21.5254 95.4593 21.9576 95.705L22.4736 95.9437H89.5616L90.0464 95.7159C90.7307 95.3606 91.3232 94.8618 91.7802 94.2566C92.5231 93.2133 99.7481 81.028 99.9338 80.507C100.183 79.7085 100.201 78.8598 99.9848 78.0523C99.849 77.6822 99.6385 77.3416 99.3653 77.05C99.0493 76.6775 98.6326 76.396 98.1611 76.2367C97.6895 76.0775 97.1815 76.0465 96.6928 76.1472C95.837 76.3111 95.0465 76.7033 94.4116 77.2791C93.0613 78.3469 91.4591 79.0797 89.7458 79.4133C88.7534 79.6219 88.4968 79.6316 74.0272 79.6711C65.9361 79.7012 51.0739 79.6806 40.9937 79.6315L22.6735 79.5416L21.6627 79.2838C20.3766 78.9384 19.1642 78.3771 18.0814 77.6255C16.7601 76.6327 16.6056 76.5345 16.0796 76.3544C15.4815 76.1174 14.8265 76.0457 14.1883 76.1472Z" fill="#0D4685"/>
</svg>
