<svg xmlns="http://www.w3.org/2000/svg" width="199.916" height="92.288" viewBox="0 0 199.916 92.288">
  <g id="Grupo_8" data-name="Grupo 8" transform="translate(-482 192)">
    <path id="Caminho_18" data-name="Caminho 18" d="M2092.562-1428.652a20.38,20.38,0,0,0-7.9,2.213,19.511,19.511,0,0,0-10.111,20.536,19.124,19.124,0,0,0,2.889,7.265,17.725,17.725,0,0,0,2.49,3.065,19.408,19.408,0,0,0,10.956,5.54,23.846,23.846,0,0,0,5.679,0,19.223,19.223,0,0,0,10.228-4.848,20.914,20.914,0,0,0,2.118-2.271l.284-.371v-14.363h-18.054v5.605h11.72v5.307l-.677.626a12.03,12.03,0,0,1-2.926,2.038,12.147,12.147,0,0,1-9.6.641,12.3,12.3,0,0,1-7.876-8.539,10.807,10.807,0,0,1-.357-3.022,11.577,11.577,0,0,1,.837-4.506,12.436,12.436,0,0,1,9.354-7.622,15.472,15.472,0,0,1,5.824.269,12.74,12.74,0,0,1,4.754,2.41,1.315,1.315,0,0,0,.48.3c.044-.015,1.332-.823,2.861-1.8l2.78-1.776-.371-.429a17.878,17.878,0,0,0-8.729-5.562A21.673,21.673,0,0,0,2092.562-1428.652Z" transform="translate(-1468.922 1269.163)" fill="#878684"/>
    <path id="Caminho_19" data-name="Caminho 19" d="M1535.115-1394.67c-5.016,10.076-9.115,18.352-9.115,18.381s1.893.052,4.208.052h4.2l1.333-2.658,1.324-2.657h19.692l1.332,2.657,1.325,2.658h4.121c4.12,0,4.12,0,4.084-.153-.022-.081-3.968-8.349-8.765-18.381L1550.132-1413h-5.911Zm15.411-.124c1.886,4.069,3.429,7.418,3.429,7.447s-3.115.044-6.923.044c-6.567,0-6.923-.008-6.872-.131.022-.066,1.543-3.524,3.37-7.68l3.327-7.549.116.233C1547.038-1402.3,1548.64-1398.863,1550.525-1394.794Z" transform="translate(-960.56 1254.625)" fill="#878684"/>
    <path id="Caminho_20" data-name="Caminho 20" d="M2562.87-1394.562c-5.016,10.082-9.093,18.352-9.071,18.381s1.915.036,4.215.036h4.171l1.324-2.657,1.325-2.657h19.7l1.326,2.657,1.332,2.657h4.127c2.279,0,4.135-.022,4.135-.058s-3.945-8.291-8.772-18.359l-8.757-18.309-2.978-.014-2.97-.014Zm15.346-.313,3.538,7.629-3.444.022c-1.9.008-5.016.008-6.938,0l-3.494-.022,3.356-7.629c1.849-4.193,3.378-7.622,3.4-7.622S2576.271-1399.069,2578.216-1394.876Z" transform="translate(-1913.538 1254.532)" fill="#878684"/>
    <g id="Grupo_5" data-name="Grupo 5" transform="translate(482 -192)">
      <path id="Caminho_15" data-name="Caminho 15" d="M404.879-1874.834a2.144,2.144,0,0,0-1.092.6,2.607,2.607,0,0,0-.677,1.063c0,.036-5.132,8.874-11.407,19.64s-11.48,19.779-11.575,20.026a4.606,4.606,0,0,0-.328,1.834,3.6,3.6,0,0,0,.379,1.82c.357.706,2.329,4.1,2.657,4.55a5.907,5.907,0,0,0,1.42,1.383,4.2,4.2,0,0,0,3.625.292c.968-.444,1.456-.991,2.533-2.811,5.853-9.886,24.292-40.672,24.533-40.955a5.368,5.368,0,0,1,.764-.692,5.535,5.535,0,0,0,1.645-1.427,3.455,3.455,0,0,0,.488-2.817,3.556,3.556,0,0,0-2.8-2.511C414.481-1874.922,405.33-1874.922,404.879-1874.834Z" transform="translate(-379.8 1874.9)" fill="#0d4685"/>
      <path id="Caminho_16" data-name="Caminho 16" d="M944.2-1874.649a3.478,3.478,0,0,0-2.846,2.9,3.47,3.47,0,0,0,1.718,3.5,6.48,6.48,0,0,1,1.573,1.5c.16.233,17.908,29.956,23.535,39.412,1.456,2.446,1.805,2.956,2.329,3.378a3.986,3.986,0,0,0,3.589.64,4.937,4.937,0,0,0,2.322-1.8,47.245,47.245,0,0,0,2.9-5.227,5.764,5.764,0,0,0-.138-2.758c-.145-.437-2.948-5.307-11.618-20.187-6.29-10.788-11.429-19.648-11.429-19.691a2.195,2.195,0,0,0-.175-.415,2.928,2.928,0,0,0-1.194-1.129c-.342-.16-.357-.16-5.292-.175C946.753-1874.7,944.38-1874.678,944.2-1874.649Z" transform="translate(-900.433 1874.715)" fill="#0d4685"/>
      <path id="Caminho_17" data-name="Caminho 17" d="M703.731-1581.484c-4.557,7.637-8.263,13.9-8.233,13.926.065.065,32.984.065,33.05,0,.036-.036-16.3-27.525-16.489-27.743C712.03-1595.33,708.281-1589.114,703.731-1581.484Z" transform="translate(-672.516 1615.655)" fill="#0d4685"/>
      <path id="Caminho_21" data-name="Caminho 21" d="M496.616-1108.377a1.932,1.932,0,0,0-1.1.691,2.121,2.121,0,0,0-.517,1.529,4.351,4.351,0,0,0,.859,2.41c.328.553,1.573,2.708,2.766,4.79,1.885,3.283,2.242,3.851,2.642,4.266a3.946,3.946,0,0,0,.83.655l.364.175H549.78l.342-.167a3.661,3.661,0,0,0,1.223-1.07c.524-.765,5.62-9.7,5.751-10.082a3.354,3.354,0,0,0,.036-1.8,2.183,2.183,0,0,0-.437-.735,1.915,1.915,0,0,0-1.885-.662,3.279,3.279,0,0,0-1.609.83,7.536,7.536,0,0,1-3.291,1.565c-.7.153-.881.16-11.087.189-5.707.022-16.19.007-23.3-.029l-12.922-.066-.713-.189a7.986,7.986,0,0,1-2.526-1.216c-.932-.728-1.041-.8-1.412-.932A2.452,2.452,0,0,0,496.616-1108.377Z" transform="translate(-486.614 1164.212)" fill="#0d4685"/>
    </g>
    <path id="Caminho_22" data-name="Caminho 22" d="M1713.4-731.63a4.537,4.537,0,0,0-2.6,1.412,4.255,4.255,0,0,0-1.1,3.036,4.228,4.228,0,0,0,1.164,3.1,5.476,5.476,0,0,0,.888.75,4.853,4.853,0,0,0,5.547-.386l.378-.342-.67-.655a8.351,8.351,0,0,0-.742-.67c-.036-.014-.189.08-.335.211a2.047,2.047,0,0,1-1.551.539,2.067,2.067,0,0,1-1.623-.6,2.872,2.872,0,0,1-.116-3.749,2.379,2.379,0,0,1,3.21-.276l.328.291.721-.728.721-.728-.321-.284A4.986,4.986,0,0,0,1713.4-731.63Z" transform="translate(-1130.888 622.932)" fill="#878684"/>
    <path id="Caminho_23" data-name="Caminho 23" d="M1909.363-728.569c-.124.291-.932,2.213-1.791,4.273s-1.572,3.771-1.572,3.807a5.3,5.3,0,0,0,1.136.044l1.143-.022.3-.8.305-.8,1.645-.022,1.646-.015.327.815.327.823,1.179.022c1.1.015,1.172.007,1.135-.109-.021-.073-.83-2.016-1.783-4.317l-1.74-4.186-1.019-.022-1.019-.022Zm1.7,3.3c.262.713.472,1.332.472,1.361a8.443,8.443,0,0,1-1.965,0c0-.073.975-2.708,1-2.686C1910.572-726.581,1910.79-725.992,1911.06-725.271Z" transform="translate(-1312.897 620.511)" fill="#878684"/>
    <path id="Caminho_24" data-name="Caminho 24" d="M2133-724.861v4.346l1.04-.022,1.034-.022.022-1.572.014-1.572.94-.051a3.835,3.835,0,0,0,2.773-.917,2.284,2.284,0,0,0,.663-1.332,2.636,2.636,0,0,0-.787-2.431c-.764-.6-1.165-.684-3.64-.728L2133-729.2Zm3.582-2.5c.531.117.786.379.786.83,0,.75-.356,1-1.507,1.041l-.75.029v-1.98h.547A5.7,5.7,0,0,1,2136.582-727.358Z" transform="translate(-1523.372 620.604)" fill="#878684"/>
    <path id="Caminho_25" data-name="Caminho 25" d="M2330.187-728.913c-.022.051-.029,1.995-.022,4.317l.022,4.222,1.077.022,1.07.022V-729h-1.055C2330.5-729,2330.208-728.978,2330.187-728.913Z" transform="translate(-1706.181 620.418)" fill="#878684"/>
    <path id="Caminho_26" data-name="Caminho 26" d="M2464-728.054v.946h2.4v6.77h2.111v-6.77h2.4V-729H2464Z" transform="translate(-1830.276 620.418)" fill="#878684"/>
    <path id="Caminho_27" data-name="Caminho 27" d="M2642.364-728.569c-.124.291-.932,2.213-1.791,4.273s-1.572,3.771-1.572,3.807a5.3,5.3,0,0,0,1.136.044l1.142-.022.3-.8.306-.8,1.645-.022,1.646-.015.328.815.328.823,1.179.022c1.1.015,1.172.007,1.135-.109-.021-.073-.823-2.016-1.783-4.317l-1.74-4.186-1.018-.022-1.021-.022Zm1.7,3.3c.262.713.474,1.332.474,1.361a4.43,4.43,0,0,1-.983.058,3.971,3.971,0,0,1-.983-.058c0-.073.976-2.708,1-2.686C2643.571-726.581,2643.791-725.992,2644.059-725.271Z" transform="translate(-1992.537 620.511)" fill="#878684"/>
    <path id="Caminho_28" data-name="Caminho 28" d="M2866-724.669v4.331l2.716-.015,2.707-.022v-1.82l-1.653-.022-1.66-.015V-729H2866Z" transform="translate(-2203.012 620.418)" fill="#878684"/>
  </g>
</svg>
